PathFileType	4	(X/Y/Z)	/tmp/tmpiso3uksv//results/MarkerData/Run_5.trc
DataRate	CameraRate	NumFrames	NumMarkers	Units	OrigDataRate	OrigDataStartFrame	OrigNumFrames
119.99	119.99	9	42	m	119.99	323	647
Frame#	Time	C7			CLAV			LACR			LASI			LCAL			LFAradius			LFAsuperior			LFAulna			LLEL			LMEL			LMT5			LPSI			LTB1			LTB2			LTB3			LTH1			LTH2			LTH3			LTOE			LUA1			LUA2			LUA3			RACR			RASI			RCAL			RFAradius			RFAsuperior			RFAulna			RLEL			RMEL			RMT5			RPSI			RTB1			RTB2			RTB3			RTH1			RTH2			RTH3			RTOE			RUA1			RUA2			RUA3		
		X1	Y1	Z1	X2	Y2	Z2	X3	Y3	Z3	X4	Y4	Z4	X5	Y5	Z5	X6	Y6	Z6	X7	Y7	Z7	X8	Y8	Z8	X9	Y9	Z9	X10	Y10	Z10	X11	Y11	Z11	X12	Y12	Z12	X13	Y13	Z13	X14	Y14	Z14	X15	Y15	Z15	X16	Y16	Z16	X17	Y17	Z17	X18	Y18	Z18	X19	Y19	Z19	X20	Y20	Z20	X21	Y21	Z21	X22	Y22	Z22	X23	Y23	Z23	X24	Y24	Z24	X25	Y25	Z25	X26	Y26	Z26	X27	Y27	Z27	X28	Y28	Z28	X29	Y29	Z29	X30	Y30	Z30	X31	Y31	Z31	X32	Y32	Z32	X33	Y33	Z33	X34	Y34	Z34	X35	Y35	Z35	X36	Y36	Z36	X37	Y37	Z37	X38	Y38	Z38	X39	Y39	Z39	X40	Y40	Z40	X41	Y41	Z41	X42	Y42	Z42

324	2.7	0.710961	1.50031	-0.333091	0.839567	1.41289	-0.346562	0.694215	1.47878	-0.511391	0.757639	1.00968	-0.472974	0.716232	0.293923	-0.416043	0.682375	1.19604	-0.658195	0.546968	1.31332	-0.685664	0.635277	1.15884	-0.687422	0.488817	1.34913	-0.669237	0.449276	1.30686	-0.602269	0.886414	0.188506	-0.477572	0.591819	1.03584	-0.407943	0.991291	0.514755	-0.445506	0.903028	0.437581	-0.493039	0.874777	0.362724	-0.416585	0.77676	0.904348	-0.535341	0.886488	0.857044	-0.516948	0.924261	0.713476	-0.522698	0.918615	0.216302	-0.393508	0.631212	1.45687	-0.556919	0.55853	1.42138	-0.534349	0.571914	1.4069	-0.612874	0.790228	1.44869	-0.167361	0.751351	0.980536	-0.242323	0.119575	0.272566	-0.297141	0.965375	1.25506	-0.243184	0.894403	1.19917	-0.103172	0.984243	1.19062	-0.2323	0.836344	1.16773	-0.0501583	0.769891	1.12248	-0.0959967	0.189011	0.0912902	-0.234778	0.591349	1.03437	-0.317115	0.408733	0.424041	-0.282759	0.337124	0.397986	-0.225832	0.284112	0.289848	-0.291537	0.628518	0.82088	-0.198488	0.619832	0.690893	-0.227566	0.478423	0.627319	-0.227985	0.230734	0.0857814	-0.323334	0.813705	1.33418	-0.116587	0.847385	1.27354	-0.134494	0.78173	1.2341	-0.0553818
325	2.70833	0.711174	1.50273	-0.334434	0.839925	1.41588	-0.350139	0.691209	1.48093	-0.51196	0.759128	1.01343	-0.47211	0.750049	0.265377	-0.415055	0.68217	1.20575	-0.661595	0.543631	1.31994	-0.687601	0.635748	1.16733	-0.690433	0.485223	1.35414	-0.670173	0.446524	1.31101	-0.603508	0.930186	0.17858	-0.477128	0.593815	1.0405	-0.406786	1.00202	0.513741	-0.445632	0.921153	0.428135	-0.492992	0.901052	0.350434	-0.416838	0.777459	0.908532	-0.535527	0.886044	0.85916	-0.517891	0.922909	0.714154	-0.520633	0.959737	0.210452	-0.39322	0.628469	1.46023	-0.556892	0.556119	1.4262	-0.534757	0.569034	1.4114	-0.613618	0.793699	1.45234	-0.170532	0.753412	0.982547	-0.243654	0.105476	0.301019	-0.297741	0.958214	1.26109	-0.253341	0.898255	1.20511	-0.108786	0.979201	1.19753	-0.24401	0.844142	1.17339	-0.0519146	0.774306	1.12731	-0.0932402	0.151232	0.109786	-0.235245	0.594032	1.0389	-0.316074	0.397373	0.432285	-0.280278	0.324092	0.410238	-0.224583	0.265574	0.304794	-0.289934	0.627326	0.825982	-0.197982	0.615862	0.69577	-0.223074	0.474305	0.634531	-0.22718	0.195562	0.102647	-0.321287	0.819658	1.33899	-0.118952	0.853202	1.27783	-0.136682	0.789774	1.23989	-0.055233
326	2.71667	0.711695	1.50467	-0.335862	0.840533	1.41822	-0.353803	0.688547	1.48229	-0.512604	0.760137	1.01624	-0.471557	0.783449	0.238433	-0.414049	0.682661	1.2144	-0.664765	0.540926	1.32521	-0.690009	0.637081	1.17485	-0.69351	0.482208	1.35781	-0.671524	0.44443	1.31374	-0.605254	0.970871	0.170506	-0.477547	0.595157	1.04485	-0.405597	1.01015	0.511035	-0.44582	0.93728	0.417996	-0.493112	0.925382	0.338295	-0.417348	0.77631	0.909524	-0.535355	0.884082	0.859041	-0.51955	0.920305	0.712981	-0.519403	0.99787	0.205802	-0.393737	0.626154	1.46266	-0.557207	0.553935	1.42981	-0.535663	0.566526	1.41474	-0.614754	0.797123	1.45539	-0.173434	0.755249	0.9852	-0.243832	0.090261	0.330705	-0.298733	0.950785	1.26458	-0.261867	0.90097	1.20941	-0.1136	0.973185	1.20168	-0.255195	0.850002	1.17819	-0.0532609	0.777754	1.13118	-0.0907372	0.114663	0.13431	-0.235821	0.596763	1.04339	-0.315119	0.387814	0.437992	-0.278957	0.313067	0.421033	-0.224483	0.247046	0.320795	-0.28987	0.627439	0.82989	-0.197801	0.615416	0.699073	-0.219392	0.474376	0.63816	-0.226402	0.160595	0.123896	-0.32022	0.82421	1.34284	-0.120873	0.857857	1.28155	-0.137773	0.795062	1.24471	-0.0557364
327	2.725	0.712626	1.5062	-0.337309	0.841291	1.4199	-0.357497	0.686394	1.48293	-0.513341	0.760432	1.01803	-0.471434	0.815554	0.213578	-0.412963	0.683944	1.22199	-0.667767	0.539016	1.32917	-0.692786	0.639338	1.18141	-0.696662	0.479929	1.36014	-0.673204	0.443102	1.31503	-0.60741	1.00772	0.163832	-0.47859	0.59604	1.04869	-0.404502	1.0157	0.506613	-0.446126	0.951081	0.407307	-0.493232	0.947471	0.326612	-0.417781	0.773685	0.907644	-0.534862	0.881154	0.856984	-0.521633	0.916431	0.709862	-0.518779	1.03238	0.201991	-0.39513	0.62441	1.46417	-0.557859	0.55206	1.43211	-0.537097	0.564545	1.41692	-0.616206	0.800526	1.45788	-0.176045	0.756982	0.988186	-0.243366	0.0747779	0.361845	-0.299578	0.943835	1.26562	-0.268829	0.902516	1.21196	-0.117696	0.966873	1.20306	-0.265118	0.853701	1.18195	-0.0543678	0.779908	1.13436	-0.0889536	0.0812996	0.163913	-0.236272	0.599343	1.04749	-0.314344	0.379901	0.44238	-0.278617	0.303825	0.431482	-0.225228	0.229494	0.33842	-0.290808	0.629154	0.832083	-0.197911	0.618158	0.700105	-0.217865	0.477901	0.638585	-0.22568	0.127413	0.149506	-0.32069	0.827139	1.34581	-0.122351	0.861133	1.2848	-0.138105	0.797566	1.24849	-0.0566806
328	2.73333	0.714071	1.5074	-0.338802	0.842101	1.42082	-0.361112	0.684921	1.48291	-0.514274	0.759916	1.01884	-0.471751	0.845302	0.191368	-0.411812	0.686127	1.22851	-0.670683	0.538088	1.33193	-0.695751	0.642591	1.18699	-0.699905	0.478568	1.36122	-0.675107	0.442676	1.31486	-0.609874	1.04007	0.158054	-0.47991	0.596671	1.0517	-0.403562	1.01888	0.500637	-0.446449	0.962469	0.396265	-0.493198	0.967007	0.315595	-0.417936	0.770139	0.903974	-0.534238	0.878016	0.853197	-0.523667	0.911187	0.704679	-0.518374	1.06265	0.19863	-0.397205	0.623356	1.46479	-0.558824	0.550667	1.433	-0.538993	0.563247	1.41795	-0.617853	0.803785	1.45978	-0.178411	0.758554	0.991005	-0.242893	0.0610517	0.394748	-0.299892	0.937955	1.2643	-0.274306	0.902787	1.21274	-0.121033	0.96082	1.20173	-0.272771	0.855125	1.18453	-0.0553261	0.780319	1.13717	-0.0880513	0.0529133	0.19718	-0.236601	0.601422	1.05086	-0.313763	0.373956	0.446524	-0.279068	0.296769	0.442463	-0.226507	0.21418	0.357923	-0.292118	0.632598	0.832166	-0.19833	0.623325	0.698935	-0.218915	0.484057	0.636501	-0.225188	0.0976091	0.179245	-0.322486	0.828576	1.34802	-0.123529	0.863053	1.28757	-0.137899	0.797764	1.25137	-0.0577406
329	2.74167	0.716029	1.50827	-0.34044	0.842859	1.42087	-0.364535	0.684256	1.48228	-0.515577	0.758695	1.01881	-0.472432	0.871459	0.172276	-0.410666	0.689302	1.23401	-0.673544	0.538309	1.33362	-0.698693	0.646899	1.19155	-0.703219	0.47827	1.36107	-0.67716	0.443258	1.31316	-0.612603	1.06719	0.152758	-0.481268	0.597154	1.05351	-0.402768	1.02004	0.493399	-0.446603	0.97147	0.385101	-0.492922	0.983497	0.305245	-0.417841	0.766274	0.89976	-0.533759	0.875201	0.84774	-0.525283	0.904523	0.697447	-0.517865	1.08803	0.195257	-0.399557	0.623023	1.4645	-0.560067	0.549953	1.43238	-0.541226	0.562726	1.41786	-0.619614	0.806704	1.46104	-0.180672	0.75989	0.993206	-0.242718	0.0514389	0.429459	-0.29962	0.933436	1.26068	-0.278468	0.901702	1.21177	-0.123548	0.955241	1.19776	-0.277646	0.854342	1.18586	-0.0561459	0.778661	1.13984	-0.0878547	0.0302583	0.232977	-0.236871	0.602878	1.0532	-0.31332	0.370436	0.450918	-0.280253	0.292623	0.454174	-0.228084	0.20221	0.379116	-0.293367	0.637593	0.830171	-0.19905	0.630034	0.696262	-0.221913	0.492101	0.632621	-0.225114	0.0720791	0.212476	-0.324595	0.828962	1.34961	-0.124679	0.86386	1.28968	-0.137311	0.796404	1.25358	-0.0587131
330	2.75	0.718347	1.50871	-0.342347	0.843469	1.41997	-0.367688	0.684439	1.48102	-0.517435	0.757045	1.01812	-0.473374	0.892772	0.15641	-0.409685	0.693508	1.23851	-0.676304	0.53978	1.33426	-0.701479	0.652295	1.19506	-0.706543	0.479085	1.35969	-0.679373	0.444859	1.30988	-0.615646	1.08845	0.147691	-0.482576	0.597448	1.05369	-0.40205	1.0195	0.485247	-0.446461	0.978001	0.374108	-0.492421	0.99628	0.295453	-0.417636	0.762648	0.895729	-0.533765	0.872746	0.840635	-0.526424	0.896597	0.688468	-0.517108	1.10791	0.191436	-0.401716	0.623342	1.4633	-0.561582	0.550046	1.43022	-0.543677	0.562981	1.41663	-0.621498	0.809107	1.46158	-0.183052	0.761026	0.994548	-0.242722	0.0477662	0.465546	-0.299036	0.930234	1.25473	-0.281533	0.899263	1.20916	-0.125244	0.949991	1.1912	-0.280008	0.851578	1.18604	-0.0567773	0.774915	1.14234	-0.0879782	0.0129695	0.270856	-0.236946	0.603963	1.05422	-0.312947	0.369601	0.455512	-0.282156	0.291938	0.466182	-0.229789	0.194311	0.401464	-0.294429	0.643695	0.826635	-0.199978	0.637535	0.692924	-0.225633	0.501413	0.627516	-0.2255	0.0510461	0.248278	-0.325783	0.828784	1.35062	-0.126073	0.863863	1.29093	-0.136533	0.794144	1.2554	-0.0595902
331	2.75833	0.720734	1.50853	-0.344618	0.84387	1.41814	-0.370532	0.685385	1.47904	-0.519943	0.755286	1.01689	-0.474507	0.90827	0.143259	-0.409163	0.69871	1.24213	-0.67886	0.542484	1.33379	-0.704112	0.65878	1.19761	-0.709794	0.480938	1.35702	-0.681856	0.44738	1.30498	-0.61913	1.10355	0.142707	-0.483824	0.597397	1.05192	-0.40129	1.01746	0.476567	-0.446029	0.981746	0.363656	-0.491838	1.00473	0.28618	-0.417438	0.759662	0.891803	-0.534574	0.870286	0.83201	-0.527302	0.887891	0.678392	-0.516128	1.12186	0.186929	-0.403313	0.624178	1.46111	-0.563444	0.550942	1.42653	-0.546301	0.563932	1.4142	-0.623609	0.810892	1.46132	-0.185735	0.762112	0.994986	-0.242677	0.0508816	0.502111	-0.298586	0.928058	1.2464	-0.283637	0.895549	1.20506	-0.126181	0.944739	1.18213	-0.280543	0.847129	1.18526	-0.0571297	0.769324	1.14452	-0.0880213	0.000346737	0.310811	-0.236465	0.605033	1.05372	-0.312582	0.371381	0.460013	-0.284607	0.294795	0.47784	-0.23147	0.190823	0.424286	-0.295389	0.650347	0.822361	-0.200992	0.645342	0.689439	-0.228948	0.51153	0.621592	-0.226183	0.0346274	0.285731	-0.325326	0.828281	1.35094	-0.127807	0.863229	1.29112	-0.135833	0.79131	1.25691	-0.0604422
332	2.76667	0.722828	1.50751	-0.347299	0.844059	1.41544	-0.373055	0.686907	1.47619	-0.523048	0.753648	1.01517	-0.475777	0.917576	0.13177	-0.409474	0.704802	1.245	-0.6811	0.546282	1.33206	-0.706732	0.666325	1.19934	-0.712878	0.483655	1.35295	-0.684782	0.450661	1.29848	-0.6232	1.11273	0.137498	-0.484965	0.59685	1.04814	-0.400339	1.01389	0.467745	-0.445414	0.982297	0.354081	-0.491424	1.00857	0.277445	-0.417375	0.757416	0.887361	-0.536284	0.867415	0.822191	-0.528163	0.879179	0.668114	-0.515055	1.12982	0.181689	-0.404193	0.625394	1.45785	-0.565812	0.552491	1.42136	-0.549151	0.565472	1.41046	-0.626085	0.812044	1.46014	-0.188707	0.763295	0.994557	-0.242562	0.0606866	0.538023	-0.298669	0.926492	1.23569	-0.284733	0.890667	1.19963	-0.126384	0.93919	1.17075	-0.27978	0.84126	1.18373	-0.0570978	0.762176	1.14617	-0.087714	-0.00764631	0.352638	-0.235105	0.606117	1.05166	-0.312112	0.375454	0.464128	-0.287163	0.300844	0.488685	-0.232979	0.191775	0.446947	-0.296346	0.657054	0.81799	-0.202023	0.653266	0.685873	-0.231352	0.522195	0.615105	-0.226865	0.0232585	0.324048	-0.323286	0.827346	1.35041	-0.129724	0.861852	1.29013	-0.135479	0.787887	1.258	-0.0612692
